<svg width="1855" height="995" xmlns="http://www.w3.org/2000/svg"><g><path d="M-9,-79L-90,158L-37,26Z" fill="#fdffde" stroke="#fdffde"/><path d="M-9,-79L-37,26L23,-44Z" fill="#ffffe3" stroke="#ffffe3"/><path d="M-9,-79L23,-44L150,-10Z" fill="#f9fde2" stroke="#f9fde2"/><path d="M-9,-79L150,-10L247,-16Z" fill="#f2fadd" stroke="#f2fadd"/><path d="M-9,-79L247,-16L441,-48Z" fill="#e7f6da" stroke="#e7f6da"/><path d="M-9,-79L441,-48L1268,-73Z" fill="#bbe5de" stroke="#bbe5de"/><path d="M23,-44L-37,26L35,32Z" fill="#feffdf" stroke="#feffdf"/><path d="M23,-44L35,32L150,-10Z" fill="#f8fcdd" stroke="#f8fcdd"/><path d="M150,-10L35,32L112,71Z" fill="#f3fbd8" stroke="#f3fbd8"/><path d="M150,-10L112,71L213,56Z" fill="#ecf9d5" stroke="#ecf9d5"/><path d="M150,-10L213,56L247,-16Z" fill="#e9f7d6" stroke="#e9f7d6"/><path d="M247,-16L213,56L310,-11Z" fill="#e4f5d3" stroke="#e4f5d3"/><path d="M247,-16L310,-11L441,-48Z" fill="#daf1d7" stroke="#daf1d7"/><path d="M310,-11L213,56L231,106Z" fill="#e2f5cf" stroke="#e2f5cf"/><path d="M310,-11L231,106L320,137Z" fill="#dbf3cd" stroke="#dbf3cd"/><path d="M310,-11L320,137L393,57Z" fill="#d5f0cf" stroke="#d5f0cf"/><path d="M310,-11L393,57L441,-48Z" fill="#d3eed5" stroke="#d3eed5"/><path d="M441,-48L393,57L413,80Z" fill="#cdecd3" stroke="#cdecd3"/><path d="M441,-48L413,80L545,85Z" fill="#c5ead2" stroke="#c5ead2"/><path d="M441,-48L545,85L570,-11Z" fill="#c0e7d6" stroke="#c0e7d6"/><path d="M441,-48L570,-11L605,-29Z" fill="#bee6da" stroke="#bee6da"/><path d="M441,-48L605,-29L784,-37Z" fill="#b6e3dc" stroke="#b6e3dc"/><path d="M441,-48L784,-37L1268,-73Z" fill="#9ed8e0" stroke="#9ed8e0"/><path d="M570,-11L545,85L673,88Z" fill="#b4e3d3" stroke="#b4e3d3"/><path d="M570,-11L673,88L605,-29Z" fill="#b4e3d7" stroke="#b4e3d7"/><path d="M605,-29L673,88L785,22Z" fill="#abdfd7" stroke="#abdfd7"/><path d="M605,-29L785,22L784,-37Z" fill="#a8dedc" stroke="#a8dedc"/><path d="M784,-37L785,22L835,-17Z" fill="#a0dadd" stroke="#a0dadd"/><path d="M784,-37L835,-17L950,-13Z" fill="#9cd6dd" stroke="#9cd6dd"/><path d="M784,-37L950,-13L1053,-28Z" fill="#97d1dd" stroke="#97d1dd"/><path d="M784,-37L1053,-28L1192,-53Z" fill="#92ccde" stroke="#92ccde"/><path d="M784,-37L1192,-53L1268,-73Z" fill="#8ec6de" stroke="#8ec6de"/><path d="M835,-17L785,22L866,91Z" fill="#9cd8d8" stroke="#9cd8d8"/><path d="M835,-17L866,91L932,8Z" fill="#99d5d9" stroke="#99d5d9"/><path d="M835,-17L932,8L950,-13Z" fill="#99d3db" stroke="#99d3db"/><path d="M950,-13L932,8L1027,69Z" fill="#93cfd8" stroke="#93cfd8"/><path d="M950,-13L1027,69L1053,-28Z" fill="#91ccd9" stroke="#91ccd9"/><path d="M1053,-28L1027,69L1075,110Z" fill="#8cc9d5" stroke="#8cc9d5"/><path d="M1053,-28L1075,110L1195,19Z" fill="#8dc4d4" stroke="#8dc4d4"/><path d="M1053,-28L1195,19L1192,-53Z" fill="#8fc0d8" stroke="#8fc0d8"/><path d="M1192,-53L1195,19L1268,-73Z" fill="#90b9d6" stroke="#90b9d6"/><path d="M1268,-73L1195,19L1206,42Z" fill="#90b9d3" stroke="#90b9d3"/><path d="M1268,-73L1206,42L1330,-36Z" fill="#90b4d2" stroke="#90b4d2"/><path d="M1268,-73L1330,-36L1455,-60Z" fill="#90acd1" stroke="#90acd1"/><path d="M1268,-73L1455,-60L1656,-59Z" fill="#8ba2cb" stroke="#8ba2cb"/><path d="M1330,-36L1206,42L1369,75Z" fill="#8fb1cc" stroke="#8fb1cc"/><path d="M1330,-36L1369,75L1455,-60Z" fill="#8ea9ca" stroke="#8ea9ca"/><path d="M1455,-60L1369,75L1489,88Z" fill="#8aa4c3" stroke="#8aa4c3"/><path d="M1455,-60L1489,88L1524,14Z" fill="#899fc1" stroke="#899fc1"/><path d="M1455,-60L1524,14L1585,-14Z" fill="#899cc2" stroke="#899cc2"/><path d="M1455,-60L1585,-14L1656,-59Z" fill="#8798c2" stroke="#8798c2"/><path d="M1585,-14L1524,14L1636,127Z" fill="#8497b8" stroke="#8497b8"/><path d="M1585,-14L1636,127L1688,65Z" fill="#8091b3" stroke="#8091b3"/><path d="M1585,-14L1688,65L1706,24Z" fill="#818fb5" stroke="#818fb5"/><path d="M1585,-14L1706,24L1656,-59Z" fill="#8390b9" stroke="#8390b9"/><path d="M1656,-59L1706,24L1794,-25Z" fill="#808ab5" stroke="#808ab5"/><path d="M1656,-59L1794,-25L1914,-19Z" fill="#8083b2" stroke="#8083b2"/><path d="M1794,-25L1706,24L1823,-16Z" fill="#8084b0" stroke="#8084b0"/><path d="M1794,-25L1823,-16L1914,-19Z" fill="#8080ad" stroke="#8080ad"/><path d="M1823,-16L1706,24L1882,84Z" fill="#7e82aa" stroke="#7e82aa"/><path d="M1823,-16L1882,84L1914,-19Z" fill="#7f80a7" stroke="#7f80a7"/><path d="M1914,-19L1882,84L1960,19Z" fill="#7e80a2" stroke="#7e80a2"/><path d="M-37,26L-90,158L33,171Z" fill="#f8ffd6" stroke="#f8ffd6"/><path d="M-37,26L33,171L35,32Z" fill="#f9ffd8" stroke="#f9ffd8"/><path d="M35,32L33,171L112,71Z" fill="#f3fdd4" stroke="#f3fdd4"/><path d="M112,71L33,171L77,212Z" fill="#ebfccf" stroke="#ebfccf"/><path d="M112,71L77,212L187,173Z" fill="#e6facd" stroke="#e6facd"/><path d="M112,71L187,173L231,106Z" fill="#e5f8cc" stroke="#e5f8cc"/><path d="M112,71L231,106L213,56Z" fill="#e7f8d0" stroke="#e7f8d0"/><path d="M393,57L320,137L413,80Z" fill="#ceeecc" stroke="#ceeecc"/><path d="M413,80L320,137L472,176Z" fill="#c8edc9" stroke="#c8edc9"/><path d="M413,80L472,176L545,85Z" fill="#bfe9cc" stroke="#bfe9cc"/><path d="M545,85L472,176L519,181Z" fill="#b7e7c9" stroke="#b7e7c9"/><path d="M545,85L519,181L622,152Z" fill="#b3e5ca" stroke="#b3e5ca"/><path d="M545,85L622,152L673,88Z" fill="#afe3ce" stroke="#afe3ce"/><path d="M673,88L622,152L763,195Z" fill="#a3dfcc" stroke="#a3dfcc"/><path d="M673,88L763,195L785,22Z" fill="#a0ddd1" stroke="#a0ddd1"/><path d="M785,22L763,195L866,91Z" fill="#99dad2" stroke="#99dad2"/><path d="M866,91L763,195L879,108Z" fill="#95d8ce" stroke="#95d8ce"/><path d="M866,91L879,108L932,8Z" fill="#95d4d4" stroke="#95d4d4"/><path d="M932,8L879,108L1027,69Z" fill="#92d0d5" stroke="#92d0d5"/><path d="M1027,69L879,108L977,160Z" fill="#8ecfcf" stroke="#8ecfcf"/><path d="M1027,69L977,160L1075,110Z" fill="#8acbcf" stroke="#8acbcf"/><path d="M1195,19L1075,110L1179,120Z" fill="#8ac0ce" stroke="#8ac0ce"/><path d="M1195,19L1179,120L1206,42Z" fill="#8cbbce" stroke="#8cbbce"/><path d="M1206,42L1179,120L1224,154Z" fill="#89bac9" stroke="#89bac9"/><path d="M1206,42L1224,154L1364,116Z" fill="#8ab5c6" stroke="#8ab5c6"/><path d="M1206,42L1364,116L1369,75Z" fill="#8cb0c7" stroke="#8cb0c7"/><path d="M1369,75L1364,116L1489,88Z" fill="#87a7bf" stroke="#87a7bf"/><path d="M1489,88L1364,116L1482,178Z" fill="#84a3b9" stroke="#84a3b9"/><path d="M1489,88L1482,178L1582,147Z" fill="#809db3" stroke="#809db3"/><path d="M1489,88L1582,147L1524,14Z" fill="#839bb8" stroke="#839bb8"/><path d="M1524,14L1582,147L1636,127Z" fill="#8097b3" stroke="#8097b3"/><path d="M1688,65L1636,127L1717,138Z" fill="#7b8dab" stroke="#7b8dab"/><path d="M1688,65L1717,138L1706,24Z" fill="#7c8bad" stroke="#7c8bad"/><path d="M1706,24L1717,138L1882,84Z" fill="#7b85a8" stroke="#7b85a8"/><path d="M1882,84L1717,138L1880,107Z" fill="#7980a1" stroke="#7980a1"/><path d="M1882,84L1880,107L1975,184Z" fill="#788099" stroke="#788099"/><path d="M1882,84L1975,184L1960,19Z" fill="#7a809b" stroke="#7a809b"/><path d="M-90,158L-83,926L-82,272Z" fill="#a2e8df" stroke="#a2e8df"/><path d="M-90,158L-82,272L33,171Z" fill="#e5fdd5" stroke="#e5fdd5"/><path d="M33,171L-82,272L77,212Z" fill="#defcd3" stroke="#defcd3"/><path d="M187,173L77,212L137,269Z" fill="#d1f7ce" stroke="#d1f7ce"/><path d="M187,173L137,269L282,206Z" fill="#caf4cb" stroke="#caf4cb"/><path d="M187,173L282,206L231,106Z" fill="#d8f5c8" stroke="#d8f5c8"/><path d="M231,106L282,206L320,137Z" fill="#d6f3c6" stroke="#d6f3c6"/><path d="M320,137L282,206L375,276Z" fill="#bfefc9" stroke="#bfefc9"/><path d="M320,137L375,276L472,176Z" fill="#b9ecc9" stroke="#b9ecc9"/><path d="M472,176L375,276L480,237Z" fill="#a8e8cb" stroke="#a8e8cb"/><path d="M472,176L480,237L519,181Z" fill="#abe6ca" stroke="#abe6ca"/><path d="M519,181L480,237L537,249Z" fill="#a0e4cc" stroke="#a0e4cc"/><path d="M519,181L537,249L622,152Z" fill="#a3e3cb" stroke="#a3e3cb"/><path d="M622,152L537,249L666,234Z" fill="#98e0cd" stroke="#98e0cd"/><path d="M622,152L666,234L763,195Z" fill="#95decd" stroke="#95decd"/><path d="M763,195L666,234L732,309Z" fill="#80dacf" stroke="#80dacf"/><path d="M763,195L732,309L794,291Z" fill="#76d8d1" stroke="#76d8d1"/><path d="M763,195L794,291L891,243Z" fill="#77d6d1" stroke="#77d6d1"/><path d="M763,195L891,243L879,108Z" fill="#88d6ce" stroke="#88d6ce"/><path d="M879,108L891,243L977,160Z" fill="#87d1ce" stroke="#87d1ce"/><path d="M977,160L891,243L954,238Z" fill="#78cecf" stroke="#78cecf"/><path d="M977,160L954,238L1090,219Z" fill="#76cace" stroke="#76cace"/><path d="M977,160L1090,219L1075,110Z" fill="#80c9cc" stroke="#80c9cc"/><path d="M1075,110L1090,219L1179,120Z" fill="#83c2c9" stroke="#83c2c9"/><path d="M1179,120L1090,219L1168,222Z" fill="#79bfc9" stroke="#79bfc9"/><path d="M1179,120L1168,222L1224,154Z" fill="#7fbbc6" stroke="#7fbbc6"/><path d="M1224,154L1168,222L1214,266Z" fill="#71b8c7" stroke="#71b8c7"/><path d="M1224,154L1214,266L1368,285Z" fill="#6bb1c5" stroke="#6bb1c5"/><path d="M1224,154L1368,285L1364,116Z" fill="#7baec1" stroke="#7baec1"/><path d="M1364,116L1368,285L1482,178Z" fill="#75a5bc" stroke="#75a5bc"/><path d="M1482,178L1368,285L1495,270Z" fill="#64a0ba" stroke="#64a0ba"/><path d="M1482,178L1495,270L1589,266Z" fill="#6399b5" stroke="#6399b5"/><path d="M1482,178L1589,266L1582,147Z" fill="#6e97b2" stroke="#6e97b2"/><path d="M1582,147L1589,266L1623,264Z" fill="#6392b0" stroke="#6392b0"/><path d="M1582,147L1623,264L1636,127Z" fill="#7092ad" stroke="#7092ad"/><path d="M1636,127L1623,264L1717,138Z" fill="#6f8eaa" stroke="#6f8eaa"/><path d="M1717,138L1623,264L1783,249Z" fill="#6188a8" stroke="#6188a8"/><path d="M1717,138L1783,249L1843,228Z" fill="#6482a3" stroke="#6482a3"/><path d="M1717,138L1843,228L1880,107Z" fill="#72809f" stroke="#72809f"/><path d="M1880,107L1843,228L1975,184Z" fill="#6d7f9a" stroke="#6d7f9a"/><path d="M1975,184L1843,228L1954,254Z" fill="#5f7d99" stroke="#5f7d99"/><path d="M1975,184L1954,254L1957,390Z" fill="#4e7b98" stroke="#4e7b98"/><path d="M1975,184L1957,390L1986,548Z" fill="#34729b" stroke="#34729b"/><path d="M-82,272L-83,926L-71,543Z" fill="#91d4db" stroke="#91d4db"/><path d="M-82,272L-71,543L-57,461Z" fill="#a7ecde" stroke="#a7ecde"/><path d="M-82,272L-57,461L-46,387Z" fill="#b4f1dc" stroke="#b4f1dc"/><path d="M-82,272L-46,387L91,356Z" fill="#bdf5d8" stroke="#bdf5d8"/><path d="M-82,272L91,356L77,212Z" fill="#caf9d4" stroke="#caf9d4"/><path d="M77,212L91,356L137,269Z" fill="#c2f6d1" stroke="#c2f6d1"/><path d="M137,269L91,356L141,343Z" fill="#b4f1d2" stroke="#b4f1d2"/><path d="M137,269L141,343L269,387Z" fill="#abeecf" stroke="#abeecf"/><path d="M137,269L269,387L282,206Z" fill="#b2f0cb" stroke="#b2f0cb"/><path d="M282,206L269,387L344,333Z" fill="#a4ebcb" stroke="#a4ebcb"/><path d="M282,206L344,333L375,276Z" fill="#aaecca" stroke="#aaecca"/><path d="M375,276L344,333L462,331Z" fill="#96e5cc" stroke="#96e5cc"/><path d="M375,276L462,331L480,237Z" fill="#99e6cc" stroke="#99e6cc"/><path d="M480,237L462,331L537,249Z" fill="#94e4cc" stroke="#94e4cc"/><path d="M537,249L462,331L532,366Z" fill="#86dfce" stroke="#86dfce"/><path d="M537,249L532,366L618,337Z" fill="#7fdccf" stroke="#7fdccf"/><path d="M537,249L618,337L666,234Z" fill="#86dece" stroke="#86dece"/><path d="M666,234L618,337L732,309Z" fill="#78dad0" stroke="#78dad0"/><path d="M794,291L732,309L825,335Z" fill="#67d4d3" stroke="#67d4d3"/><path d="M794,291L825,335L891,243Z" fill="#68d2d1" stroke="#68d2d1"/><path d="M891,243L825,335L931,342Z" fill="#60ced2" stroke="#60ced2"/><path d="M891,243L931,342L954,238Z" fill="#66cdd0" stroke="#66cdd0"/><path d="M954,238L931,342L1094,372Z" fill="#56c4d2" stroke="#56c4d2"/><path d="M954,238L1094,372L1090,219Z" fill="#5ec5d0" stroke="#5ec5d0"/><path d="M1090,219L1094,372L1143,344Z" fill="#54bccf" stroke="#54bccf"/><path d="M1090,219L1143,344L1168,222Z" fill="#62bdcc" stroke="#62bdcc"/><path d="M1168,222L1143,344L1214,266Z" fill="#5db8cb" stroke="#5db8cb"/><path d="M1214,266L1143,344L1228,365Z" fill="#51b2cb" stroke="#51b2cb"/><path d="M1214,266L1228,365L1368,285Z" fill="#57adc7" stroke="#57adc7"/><path d="M1368,285L1228,365L1377,317Z" fill="#53a6c5" stroke="#53a6c5"/><path d="M1368,285L1377,317L1487,309Z" fill="#54a0be" stroke="#54a0be"/><path d="M1368,285L1487,309L1495,270Z" fill="#579dbb" stroke="#579dbb"/><path d="M1495,270L1487,309L1535,320Z" fill="#5197b8" stroke="#5197b8"/><path d="M1495,270L1535,320L1589,266Z" fill="#5395b5" stroke="#5395b5"/><path d="M1589,266L1535,320L1662,374Z" fill="#488db3" stroke="#488db3"/><path d="M1589,266L1662,374L1623,264Z" fill="#4c8cb0" stroke="#4c8cb0"/><path d="M1623,264L1662,374L1750,333Z" fill="#4484ad" stroke="#4484ad"/><path d="M1623,264L1750,333L1783,249Z" fill="#4d85a9" stroke="#4d85a9"/><path d="M1783,249L1750,333L1893,347Z" fill="#457aa4" stroke="#457aa4"/><path d="M1783,249L1893,347L1843,228Z" fill="#4f7ba0" stroke="#4f7ba0"/><path d="M1843,228L1893,347L1954,254Z" fill="#4e7b9d" stroke="#4e7b9d"/><path d="M1954,254L1893,347L1957,390Z" fill="#40769c" stroke="#40769c"/><path d="M-46,387L-57,461L90,423Z" fill="#a7eddb" stroke="#a7eddb"/><path d="M-46,387L90,423L91,356Z" fill="#abeed8" stroke="#abeed8"/><path d="M91,356L90,423L141,343Z" fill="#a8edd4" stroke="#a8edd4"/><path d="M141,343L90,423L180,437Z" fill="#9ee9d4" stroke="#9ee9d4"/><path d="M141,343L180,437L269,387Z" fill="#9be8d1" stroke="#9be8d1"/><path d="M269,387L180,437L243,442Z" fill="#8fe3d1" stroke="#8fe3d1"/><path d="M269,387L243,442L374,447Z" fill="#87e0d0" stroke="#87e0d0"/><path d="M269,387L374,447L344,333Z" fill="#8be1cf" stroke="#8be1cf"/><path d="M344,333L374,447L462,331Z" fill="#87e0cf" stroke="#87e0cf"/><path d="M462,331L374,447L427,474Z" fill="#78dad1" stroke="#78dad1"/><path d="M462,331L427,474L532,366Z" fill="#77dad1" stroke="#77dad1"/><path d="M532,366L427,474L538,490Z" fill="#68d2d2" stroke="#68d2d2"/><path d="M532,366L538,490L682,437Z" fill="#5fd0d4" stroke="#5fd0d4"/><path d="M532,366L682,437L618,337Z" fill="#69d4d2" stroke="#69d4d2"/><path d="M618,337L682,437L732,309Z" fill="#66d3d3" stroke="#66d3d3"/><path d="M732,309L682,437L745,454Z" fill="#57ced5" stroke="#57ced5"/><path d="M732,309L745,454L825,335Z" fill="#5acfd4" stroke="#5acfd4"/><path d="M825,335L745,454L809,478Z" fill="#48c8d7" stroke="#48c8d7"/><path d="M825,335L809,478L931,342Z" fill="#4ec8d5" stroke="#4ec8d5"/><path d="M931,342L809,478L972,478Z" fill="#3fbfd6" stroke="#3fbfd6"/><path d="M931,342L972,478L1094,372Z" fill="#41bdd5" stroke="#41bdd5"/><path d="M1094,372L972,478L1064,484Z" fill="#34b3d5" stroke="#34b3d5"/><path d="M1094,372L1064,484L1108,473Z" fill="#33b0d3" stroke="#33b0d3"/><path d="M1094,372L1108,473L1143,344Z" fill="#3eb3d2" stroke="#3eb3d2"/><path d="M1143,344L1108,473L1228,365Z" fill="#3fafcf" stroke="#3fafcf"/><path d="M1228,365L1108,473L1276,417Z" fill="#39a8ce" stroke="#39a8ce"/><path d="M1228,365L1276,417L1377,317Z" fill="#47a5c8" stroke="#47a5c8"/><path d="M1377,317L1276,417L1346,456Z" fill="#3f9ec8" stroke="#3f9ec8"/><path d="M1377,317L1346,456L1461,452Z" fill="#3997c4" stroke="#3997c4"/><path d="M1377,317L1461,452L1487,309Z" fill="#4497bf" stroke="#4497bf"/><path d="M1487,309L1461,452L1535,320Z" fill="#4292bb" stroke="#4292bb"/><path d="M1535,320L1461,452L1573,465Z" fill="#338bbb" stroke="#338bbb"/><path d="M1535,320L1573,465L1662,374Z" fill="#3787b6" stroke="#3787b6"/><path d="M1662,374L1573,465L1672,415Z" fill="#2d7fb4" stroke="#2d7fb4"/><path d="M1662,374L1672,415L1750,333Z" fill="#367eae" stroke="#367eae"/><path d="M1750,333L1672,415L1788,430Z" fill="#3078ac" stroke="#3078ac"/><path d="M1750,333L1788,430L1809,433Z" fill="#2e73a9" stroke="#2e73a9"/><path d="M1750,333L1809,433L1893,347Z" fill="#3573a6" stroke="#3573a6"/><path d="M1893,347L1809,433L1919,457Z" fill="#2a6ea3" stroke="#2a6ea3"/><path d="M1893,347L1919,457L1957,390Z" fill="#2e70a0" stroke="#2e70a0"/><path d="M1957,390L1919,457L1986,548Z" fill="#21679e" stroke="#21679e"/><path d="M-57,461L-71,543L95,555Z" fill="#98deda" stroke="#98deda"/><path d="M-57,461L95,555L90,423Z" fill="#9ae2d8" stroke="#9ae2d8"/><path d="M90,423L95,555L180,437Z" fill="#93e0d5" stroke="#93e0d5"/><path d="M180,437L95,555L169,581Z" fill="#88d7d3" stroke="#88d7d3"/><path d="M180,437L169,581L243,442Z" fill="#88dbd1" stroke="#88dbd1"/><path d="M243,442L169,581L259,576Z" fill="#7fd2cf" stroke="#7fd2cf"/><path d="M243,442L259,576L334,583Z" fill="#78d0cd" stroke="#78d0cd"/><path d="M243,442L334,583L374,447Z" fill="#7ad5cf" stroke="#7ad5cf"/><path d="M374,447L334,583L427,474Z" fill="#70d0cf" stroke="#70d0cf"/><path d="M427,474L334,583L477,552Z" fill="#66c8cf" stroke="#66c8cf"/><path d="M427,474L477,552L538,490Z" fill="#61cad1" stroke="#61cad1"/><path d="M538,490L477,552L553,561Z" fill="#57c3d1" stroke="#57c3d1"/><path d="M538,490L553,561L623,591Z" fill="#4fbfd1" stroke="#4fbfd1"/><path d="M538,490L623,591L682,437Z" fill="#50c3d3" stroke="#50c3d3"/><path d="M682,437L623,591L745,454Z" fill="#4ac2d4" stroke="#4ac2d4"/><path d="M745,454L623,591L663,618Z" fill="#42b9d3" stroke="#42b9d3"/><path d="M745,454L663,618L786,534Z" fill="#3fbad4" stroke="#3fbad4"/><path d="M745,454L786,534L809,478Z" fill="#40bfd6" stroke="#40bfd6"/><path d="M809,478L786,534L838,525Z" fill="#3ab9d6" stroke="#3ab9d6"/><path d="M809,478L838,525L972,478Z" fill="#38b8d6" stroke="#38b8d6"/><path d="M972,478L838,525L986,561Z" fill="#30b0d5" stroke="#30b0d5"/><path d="M972,478L986,561L1033,556Z" fill="#2aa9d4" stroke="#2aa9d4"/><path d="M972,478L1033,556L1064,484Z" fill="#2cabd4" stroke="#2cabd4"/><path d="M1064,484L1033,556L1141,528Z" fill="#27a4d3" stroke="#27a4d3"/><path d="M1064,484L1141,528L1108,473Z" fill="#2ca6d2" stroke="#2ca6d2"/><path d="M1108,473L1141,528L1276,417Z" fill="#2fa3cf" stroke="#2fa3cf"/><path d="M1276,417L1141,528L1225,585Z" fill="#2a99cd" stroke="#2a99cd"/><path d="M1276,417L1225,585L1355,527Z" fill="#2b93ca" stroke="#2b93ca"/><path d="M1276,417L1355,527L1346,456Z" fill="#3296c9" stroke="#3296c9"/><path d="M1346,456L1355,527L1461,452Z" fill="#2e8ec4" stroke="#2e8ec4"/><path d="M1461,452L1355,527L1448,544Z" fill="#2886c1" stroke="#2886c1"/><path d="M1461,452L1448,544L1573,465Z" fill="#2882bd" stroke="#2882bd"/><path d="M1573,465L1448,544L1518,589Z" fill="#207aba" stroke="#207aba"/><path d="M1573,465L1518,589L1647,577Z" fill="#1c72b6" stroke="#1c72b6"/><path d="M1573,465L1647,577L1714,523Z" fill="#1c6fb2" stroke="#1c6fb2"/><path d="M1573,465L1714,523L1672,415Z" fill="#2476b2" stroke="#2476b2"/><path d="M1672,415L1714,523L1788,430Z" fill="#2372ae" stroke="#2372ae"/><path d="M1788,430L1714,523L1809,433Z" fill="#216cab" stroke="#216cab"/><path d="M1809,433L1714,523L1875,510Z" fill="#1e66a8" stroke="#1e66a8"/><path d="M1809,433L1875,510L1919,457Z" fill="#2167a4" stroke="#2167a4"/><path d="M1919,457L1875,510L1986,548Z" fill="#1b619f" stroke="#1b619f"/><path d="M-71,543L-83,926L-37,740Z" fill="#93b2c9" stroke="#93b2c9"/><path d="M-71,543L-37,740L-40,611Z" fill="#92c9d4" stroke="#92c9d4"/><path d="M-71,543L-40,611L95,555Z" fill="#91d6d9" stroke="#91d6d9"/><path d="M95,555L-40,611L27,677Z" fill="#8fcbd3" stroke="#8fcbd3"/><path d="M95,555L27,677L109,660Z" fill="#8ac6cf" stroke="#8ac6cf"/><path d="M95,555L109,660L169,581Z" fill="#85cbd0" stroke="#85cbd0"/><path d="M169,581L109,660L236,767Z" fill="#81bac6" stroke="#81bac6"/><path d="M169,581L236,767L295,619Z" fill="#7abac5" stroke="#7abac5"/><path d="M169,581L295,619L259,576Z" fill="#78c7cb" stroke="#78c7cb"/><path d="M259,576L295,619L334,583Z" fill="#72c5cb" stroke="#72c5cb"/><path d="M334,583L295,619L312,645Z" fill="#70bfc8" stroke="#70bfc8"/><path d="M334,583L312,645L376,722Z" fill="#6cb6c5" stroke="#6cb6c5"/><path d="M334,583L376,722L477,682Z" fill="#65b0c5" stroke="#65b0c5"/><path d="M334,583L477,682L477,552Z" fill="#5fbbcb" stroke="#5fbbcb"/><path d="M477,552L477,682L510,630Z" fill="#58b4ca" stroke="#58b4ca"/><path d="M477,552L510,630L553,561Z" fill="#54bccf" stroke="#54bccf"/><path d="M553,561L510,630L623,591Z" fill="#4eb6ce" stroke="#4eb6ce"/><path d="M623,591L510,630L572,715Z" fill="#4eabc9" stroke="#4eabc9"/><path d="M623,591L572,715L663,618Z" fill="#48aaca" stroke="#48aaca"/><path d="M786,534L663,618L784,691Z" fill="#39aacf" stroke="#39aacf"/><path d="M786,534L784,691L865,646Z" fill="#32a5cf" stroke="#32a5cf"/><path d="M786,534L865,646L838,525Z" fill="#30afd4" stroke="#30afd4"/><path d="M838,525L865,646L986,561Z" fill="#2ba9d3" stroke="#2ba9d3"/><path d="M986,561L865,646L920,661Z" fill="#2b9dce" stroke="#2b9dce"/><path d="M986,561L920,661L1055,674Z" fill="#2697cd" stroke="#2697cd"/><path d="M986,561L1055,674L1033,556Z" fill="#239cd0" stroke="#239cd0"/><path d="M1033,556L1055,674L1166,623Z" fill="#2192cd" stroke="#2192cd"/><path d="M1033,556L1166,623L1141,528Z" fill="#219ad0" stroke="#219ad0"/><path d="M1141,528L1166,623L1225,585Z" fill="#2192cc" stroke="#2192cc"/><path d="M1225,585L1166,623L1275,634Z" fill="#2386c7" stroke="#2386c7"/><path d="M1225,585L1275,634L1355,527Z" fill="#2287c7" stroke="#2287c7"/><path d="M1355,527L1275,634L1385,626Z" fill="#237ec3" stroke="#237ec3"/><path d="M1355,527L1385,626L1448,544Z" fill="#2080c2" stroke="#2080c2"/><path d="M1448,544L1385,626L1431,618Z" fill="#1f77bd" stroke="#1f77bd"/><path d="M1448,544L1431,618L1518,589Z" fill="#1d75bc" stroke="#1d75bc"/><path d="M1518,589L1431,618L1556,633Z" fill="#1c6cb6" stroke="#1c6cb6"/><path d="M1518,589L1556,633L1647,577Z" fill="#1968b3" stroke="#1968b3"/><path d="M1647,577L1556,633L1661,693Z" fill="#175cac" stroke="#175cac"/><path d="M1647,577L1661,693L1724,624Z" fill="#1557a8" stroke="#1557a8"/><path d="M1647,577L1724,624L1714,523Z" fill="#1361ad" stroke="#1361ad"/><path d="M1714,523L1724,624L1875,510Z" fill="#145ea9" stroke="#145ea9"/><path d="M1875,510L1724,624L1866,654Z" fill="#1251a2" stroke="#1251a2"/><path d="M1875,510L1866,654L1917,651Z" fill="#124f9d" stroke="#124f9d"/><path d="M1875,510L1917,651L1986,548Z" fill="#12579e" stroke="#12579e"/><path d="M1986,548L1917,651L1953,766Z" fill="#134493" stroke="#134493"/><path d="M1986,548L1953,766L1962,981Z" fill="#132d85" stroke="#132d85"/><path d="M-40,611L-37,740L27,677Z" fill="#93bfcf" stroke="#93bfcf"/><path d="M27,677L-37,740L92,782Z" fill="#90b2c6" stroke="#90b2c6"/><path d="M27,677L92,782L109,660Z" fill="#8cb6c7" stroke="#8cb6c7"/><path d="M109,660L92,782L117,791Z" fill="#88acc0" stroke="#88acc0"/><path d="M109,660L117,791L236,767Z" fill="#83abbf" stroke="#83abbf"/><path d="M295,619L236,767L312,645Z" fill="#75b3c2" stroke="#75b3c2"/><path d="M312,645L236,767L376,722Z" fill="#72aabf" stroke="#72aabf"/><path d="M477,682L376,722L456,771Z" fill="#60a1bf" stroke="#60a1bf"/><path d="M477,682L456,771L572,715Z" fill="#589ebf" stroke="#589ebf"/><path d="M477,682L572,715L510,630Z" fill="#55a7c5" stroke="#55a7c5"/><path d="M663,618L572,715L619,748Z" fill="#499ec5" stroke="#499ec5"/><path d="M663,618L619,748L784,691Z" fill="#419dc7" stroke="#419dc7"/><path d="M784,691L619,748L781,775Z" fill="#3c90c1" stroke="#3c90c1"/><path d="M784,691L781,775L863,750Z" fill="#338cc2" stroke="#338cc2"/><path d="M784,691L863,750L865,646Z" fill="#3193c7" stroke="#3193c7"/><path d="M865,646L863,750L932,711Z" fill="#2f8fc7" stroke="#2f8fc7"/><path d="M865,646L932,711L920,661Z" fill="#2d94c9" stroke="#2d94c9"/><path d="M920,661L932,711L1055,674Z" fill="#288dc8" stroke="#288dc8"/><path d="M1055,674L932,711L1057,709Z" fill="#2686c6" stroke="#2686c6"/><path d="M1055,674L1057,709L1166,623Z" fill="#2387c7" stroke="#2387c7"/><path d="M1166,623L1057,709L1183,785Z" fill="#237bc1" stroke="#237bc1"/><path d="M1166,623L1183,785L1217,763Z" fill="#2472bc" stroke="#2472bc"/><path d="M1166,623L1217,763L1275,634Z" fill="#2479c1" stroke="#2479c1"/><path d="M1275,634L1217,763L1322,724Z" fill="#256dbb" stroke="#256dbb"/><path d="M1275,634L1322,724L1385,626Z" fill="#2472bd" stroke="#2472bd"/><path d="M1385,626L1322,724L1407,778Z" fill="#2363b5" stroke="#2363b5"/><path d="M1385,626L1407,778L1431,618Z" fill="#2167b6" stroke="#2167b6"/><path d="M1431,618L1407,778L1531,787Z" fill="#1f57ad" stroke="#1f57ad"/><path d="M1431,618L1531,787L1556,633Z" fill="#1d5daf" stroke="#1d5daf"/><path d="M1556,633L1531,787L1623,750Z" fill="#1b4ea6" stroke="#1b4ea6"/><path d="M1556,633L1623,750L1661,693Z" fill="#1950a7" stroke="#1950a7"/><path d="M1661,693L1623,750L1775,743Z" fill="#16419d" stroke="#16419d"/><path d="M1661,693L1775,743L1724,624Z" fill="#1447a0" stroke="#1447a0"/><path d="M1724,624L1775,743L1866,654Z" fill="#14449d" stroke="#14449d"/><path d="M1866,654L1775,743L1867,744Z" fill="#143895" stroke="#143895"/><path d="M1866,654L1867,744L1917,651Z" fill="#143e95" stroke="#143e95"/><path d="M1917,651L1867,744L1953,766Z" fill="#14368f" stroke="#14368f"/><path d="M-37,740L-83,926L-47,872Z" fill="#919bb8" stroke="#919bb8"/><path d="M-37,740L-47,872L49,879Z" fill="#929fb9" stroke="#929fb9"/><path d="M-37,740L49,879L92,782Z" fill="#8fa3bb" stroke="#8fa3bb"/><path d="M92,782L49,879L117,791Z" fill="#899eb6" stroke="#899eb6"/><path d="M117,791L49,879L172,846Z" fill="#8598b2" stroke="#8598b2"/><path d="M117,791L172,846L236,767Z" fill="#809db5" stroke="#809db5"/><path d="M236,767L172,846L209,865Z" fill="#7c97af" stroke="#7c97af"/><path d="M236,767L209,865L317,837Z" fill="#7796ae" stroke="#7796ae"/><path d="M236,767L317,837L376,722Z" fill="#719db5" stroke="#719db5"/><path d="M376,722L317,837L426,824Z" fill="#6896b3" stroke="#6896b3"/><path d="M376,722L426,824L456,771Z" fill="#6298b7" stroke="#6298b7"/><path d="M456,771L426,824L507,813Z" fill="#5b8fb3" stroke="#5b8fb3"/><path d="M456,771L507,813L572,715Z" fill="#5594b9" stroke="#5594b9"/><path d="M572,715L507,813L619,748Z" fill="#4f93bb" stroke="#4f93bb"/><path d="M619,748L507,813L615,868Z" fill="#4c88b4" stroke="#4c88b4"/><path d="M619,748L615,868L774,836Z" fill="#4182b4" stroke="#4182b4"/><path d="M619,748L774,836L781,775Z" fill="#3b86ba" stroke="#3b86ba"/><path d="M781,775L774,836L863,750Z" fill="#3382bb" stroke="#3382bb"/><path d="M863,750L774,836L805,890Z" fill="#317ab5" stroke="#317ab5"/><path d="M863,750L805,890L930,827Z" fill="#2e77b5" stroke="#2e77b5"/><path d="M863,750L930,827L932,711Z" fill="#2c80bd" stroke="#2c80bd"/><path d="M932,711L930,827L1057,709Z" fill="#287fbf" stroke="#287fbf"/><path d="M1057,709L930,827L1093,878Z" fill="#246fb7" stroke="#246fb7"/><path d="M1057,709L1093,878L1183,785Z" fill="#226bb6" stroke="#226bb6"/><path d="M1183,785L1093,878L1181,849Z" fill="#225dad" stroke="#225dad"/><path d="M1183,785L1181,849L1217,763Z" fill="#2361b1" stroke="#2361b1"/><path d="M1217,763L1181,849L1290,819Z" fill="#225bae" stroke="#225bae"/><path d="M1217,763L1290,819L1322,724Z" fill="#2460b1" stroke="#2460b1"/><path d="M1322,724L1290,819L1386,830Z" fill="#2356ac" stroke="#2356ac"/><path d="M1322,724L1386,830L1407,778Z" fill="#2255ab" stroke="#2255ab"/><path d="M1407,778L1386,830L1467,870Z" fill="#1f46a0" stroke="#1f46a0"/><path d="M1407,778L1467,870L1531,787Z" fill="#1d449f" stroke="#1d449f"/><path d="M1531,787L1467,870L1572,858Z" fill="#1b3a97" stroke="#1b3a97"/><path d="M1531,787L1572,858L1623,750Z" fill="#193d9a" stroke="#193d9a"/><path d="M1623,750L1572,858L1665,879Z" fill="#173292" stroke="#173292"/><path d="M1623,750L1665,879L1775,743Z" fill="#153494" stroke="#153494"/><path d="M1775,743L1665,879L1759,868Z" fill="#12288b" stroke="#12288b"/><path d="M1775,743L1759,868L1825,865Z" fill="#122487" stroke="#122487"/><path d="M1775,743L1825,865L1867,744Z" fill="#13298b" stroke="#13298b"/><path d="M1867,744L1825,865L1949,851Z" fill="#122182" stroke="#122182"/><path d="M1867,744L1949,851L1953,766Z" fill="#132884" stroke="#132884"/><path d="M1953,766L1949,851L1962,981Z" fill="#121776" stroke="#121776"/><path d="M-47,872L-83,926L55,979Z" fill="#908aab" stroke="#908aab"/><path d="M-47,872L55,979L49,879Z" fill="#8e8dab" stroke="#8e8dab"/><path d="M49,879L55,979L119,940Z" fill="#8886a5" stroke="#8886a5"/><path d="M49,879L119,940L172,846Z" fill="#858eaa" stroke="#858eaa"/><path d="M172,846L119,940L209,865Z" fill="#7f8ca9" stroke="#7f8ca9"/><path d="M209,865L119,940L232,944Z" fill="#7d85a3" stroke="#7d85a3"/><path d="M209,865L232,944L317,837Z" fill="#7689a5" stroke="#7689a5"/><path d="M317,837L232,944L354,991Z" fill="#6f7e9e" stroke="#6f7e9e"/><path d="M317,837L354,991L413,946Z" fill="#677b9f" stroke="#677b9f"/><path d="M317,837L413,946L426,824Z" fill="#6485a8" stroke="#6485a8"/><path d="M426,824L413,946L507,813Z" fill="#5c84aa" stroke="#5c84aa"/><path d="M507,813L413,946L589,979Z" fill="#5476a3" stroke="#5476a3"/><path d="M507,813L589,979L615,868Z" fill="#4c78a8" stroke="#4c78a8"/><path d="M615,868L589,979L654,929Z" fill="#456da3" stroke="#456da3"/><path d="M615,868L654,929L774,836Z" fill="#3f75ab" stroke="#3f75ab"/><path d="M774,836L654,929L768,952Z" fill="#396da8" stroke="#396da8"/><path d="M774,836L768,952L805,890Z" fill="#336dab" stroke="#336dab"/><path d="M805,890L768,952L826,985Z" fill="#3062a3" stroke="#3062a3"/><path d="M805,890L826,985L953,981Z" fill="#2c5ca1" stroke="#2c5ca1"/><path d="M805,890L953,981L930,827Z" fill="#2a64a9" stroke="#2a64a9"/><path d="M930,827L953,981L1021,952Z" fill="#255ba5" stroke="#255ba5"/><path d="M930,827L1021,952L1093,878Z" fill="#235faa" stroke="#235faa"/><path d="M1093,878L1021,952L1183,963Z" fill="#1f4ea1" stroke="#1f4ea1"/><path d="M1093,878L1183,963L1181,849Z" fill="#2051a4" stroke="#2051a4"/><path d="M1181,849L1183,963L1242,932Z" fill="#21489f" stroke="#21489f"/><path d="M1181,849L1242,932L1290,819Z" fill="#224fa5" stroke="#224fa5"/><path d="M1290,819L1242,932L1348,934Z" fill="#22439e" stroke="#22439e"/><path d="M1290,819L1348,934L1386,830Z" fill="#2246a1" stroke="#2246a1"/><path d="M1386,830L1348,934L1461,916Z" fill="#1f3a98" stroke="#1f3a98"/><path d="M1386,830L1461,916L1467,870Z" fill="#1e3b98" stroke="#1e3b98"/><path d="M1467,870L1461,916L1551,950Z" fill="#1b2d8e" stroke="#1b2d8e"/><path d="M1467,870L1551,950L1572,858Z" fill="#1a2d8f" stroke="#1a2d8f"/><path d="M1572,858L1551,950L1638,960Z" fill="#172286" stroke="#172286"/><path d="M1572,858L1638,960L1665,879Z" fill="#152387" stroke="#152387"/><path d="M1665,879L1638,960L1765,915Z" fill="#131980" stroke="#131980"/><path d="M1665,879L1765,915L1759,868Z" fill="#111c82" stroke="#111c82"/><path d="M1759,868L1765,915L1825,865Z" fill="#11187f" stroke="#11187f"/><path d="M1825,865L1765,915L1850,925Z" fill="#11117a" stroke="#11117a"/><path d="M1825,865L1850,925L1949,851Z" fill="#111479" stroke="#111479"/><path d="M1949,851L1850,925L1962,981Z" fill="#110c70" stroke="#110c70"/><path d="M-83,926L-13,1022L55,979Z" fill="#8f80a3" stroke="#8f80a3"/><path d="M55,979L-13,1022L33,1025Z" fill="#8c7f9c" stroke="#8c7f9c"/><path d="M55,979L33,1025L121,1006Z" fill="#877d9b" stroke="#877d9b"/><path d="M55,979L121,1006L119,940Z" fill="#857c9e" stroke="#857c9e"/><path d="M119,940L121,1006L232,944Z" fill="#7f7c9d" stroke="#7f7c9d"/><path d="M232,944L121,1006L206,1086Z" fill="#7b7894" stroke="#7b7894"/><path d="M232,944L206,1086L354,991Z" fill="#737591" stroke="#737591"/><path d="M354,991L206,1086L366,1091Z" fill="#6c728b" stroke="#6c728b"/><path d="M354,991L366,1091L407,1035Z" fill="#636f8e" stroke="#636f8e"/><path d="M354,991L407,1035L413,946Z" fill="#626e95" stroke="#626e95"/><path d="M413,946L407,1035L589,979Z" fill="#576a97" stroke="#576a97"/><path d="M589,979L407,1035L594,1052Z" fill="#4e6793" stroke="#4e6793"/><path d="M589,979L594,1052L652,1010Z" fill="#456395" stroke="#456395"/><path d="M589,979L652,1010L654,929Z" fill="#43639c" stroke="#43639c"/><path d="M654,929L652,1010L751,1011Z" fill="#3d609b" stroke="#3d609b"/><path d="M654,929L751,1011L768,952Z" fill="#39619f" stroke="#39619f"/><path d="M768,952L751,1011L826,985Z" fill="#315c9d" stroke="#315c9d"/><path d="M826,985L751,1011L863,1086Z" fill="#2e5a96" stroke="#2e5a96"/><path d="M826,985L863,1086L935,1031Z" fill="#2a5695" stroke="#2a5695"/><path d="M826,985L935,1031L953,981Z" fill="#28549a" stroke="#28549a"/><path d="M953,981L935,1031L1005,1089Z" fill="#244f94" stroke="#244f94"/><path d="M953,981L1005,1089L1021,952Z" fill="#224d98" stroke="#224d98"/><path d="M1021,952L1005,1089L1158,1033Z" fill="#1d4995" stroke="#1d4995"/><path d="M1021,952L1158,1033L1183,963Z" fill="#1e4399" stroke="#1e4399"/><path d="M1183,963L1158,1033L1237,1044Z" fill="#1f3c90" stroke="#1f3c90"/><path d="M1183,963L1237,1044L1242,932Z" fill="#203994" stroke="#203994"/><path d="M1242,932L1237,1044L1348,934Z" fill="#203593" stroke="#203593"/><path d="M1348,934L1237,1044L1371,1058Z" fill="#20308b" stroke="#20308b"/><path d="M1348,934L1371,1058L1461,916Z" fill="#1e2a8d" stroke="#1e2a8d"/><path d="M1461,916L1371,1058L1451,1085Z" fill="#1b2683" stroke="#1b2683"/><path d="M1461,916L1451,1085L1551,950Z" fill="#192084" stroke="#192084"/><path d="M1551,950L1451,1085L1582,1065Z" fill="#171c79" stroke="#171c79"/><path d="M1551,950L1582,1065L1638,960Z" fill="#15167c" stroke="#15167c"/><path d="M1638,960L1582,1065L1677,1094Z" fill="#121271" stroke="#121271"/><path d="M1638,960L1677,1094L1717,1016Z" fill="#110e71" stroke="#110e71"/><path d="M1638,960L1717,1016L1765,915Z" fill="#110e78" stroke="#110e78"/><path d="M1765,915L1717,1016L1850,925Z" fill="#100a75" stroke="#100a75"/><path d="M1850,925L1717,1016L1822,1079Z" fill="#0f036b" stroke="#0f036b"/><path d="M1850,925L1822,1079L1927,1046Z" fill="#0f0065" stroke="#0f0065"/><path d="M1850,925L1927,1046L1962,981Z" fill="#0f0067" stroke="#0f0067"/><path d="M-13,1022L206,1086L33,1025Z" fill="#867d94" stroke="#867d94"/><path d="M33,1025L206,1086L121,1006Z" fill="#817b93" stroke="#817b93"/><path d="M366,1091L1677,1094L1005,1089Z" fill="#1f4c8b" stroke="#1f4c8b"/><path d="M366,1091L1005,1089L863,1086Z" fill="#345d8c" stroke="#345d8c"/><path d="M366,1091L863,1086L594,1052Z" fill="#44638c" stroke="#44638c"/><path d="M366,1091L594,1052L407,1035Z" fill="#586b8c" stroke="#586b8c"/><path d="M594,1052L863,1086L751,1011Z" fill="#365e92" stroke="#365e92"/><path d="M594,1052L751,1011L652,1010Z" fill="#3e6195" stroke="#3e6195"/><path d="M863,1086L1005,1089L935,1031Z" fill="#25528f" stroke="#25528f"/><path d="M1005,1089L1677,1094L1451,1085Z" fill="#1d2a7b" stroke="#1d2a7b"/><path d="M1005,1089L1451,1085L1237,1044Z" fill="#1e3886" stroke="#1e3886"/><path d="M1005,1089L1237,1044L1158,1033Z" fill="#1d428d" stroke="#1d428d"/><path d="M1237,1044L1451,1085L1371,1058Z" fill="#1e2d81" stroke="#1e2d81"/><path d="M1451,1085L1677,1094L1582,1065Z" fill="#151870" stroke="#151870"/><path d="M1677,1094L1822,1079L1717,1016Z" fill="#0e0867" stroke="#0e0867"/></g><filter id="noise"><feTurbulence type="fractalNoise" in="fillPaint" fill="#F00" baseFrequency="0.7" numOctaves="3" stitchTiles="stitch"/><feComponentTransfer><feFuncR type="linear" slope="2" intercept="-.5"/><feFuncG type="linear" slope="2" intercept="-.5"/><feFuncB type="linear" slope="2" intercept="-.5"/></feComponentTransfer><feColorMatrix type="matrix" values="0.3333 0.3333 0.3333 0 0 
 0.3333 0.3333 0.3333 0 0 
 0.3333 0.3333 0.3333 0 0 
 0 0 0 1 0"/></filter><rect opacity="0.20000000000000007" width="100%" height="100%" filter="url(#noise)"/></svg>